<svg xmlns="http://www.w3.org/2000/svg" viewBox="0 0 305 305">
  <path fill="#ffffff" d="M152.5,25.5c-70,0-127,57-127,127s57,127,127,127,127-57,127-127S222.5,25.5,152.5,25.5ZM88,199.1c14.7-4.5,29.8-6.8,44.9-6.8,25.5,0,50.8,6.5,72.9,18.7,1.3.7,2.5,3.1,3.1,6.1.5,3,.3,6-.5,7.6-1.1,2-3.3,3.3-5.6,3.3s-2.2-.3-3.2-.8c-20.4-11.2-43.4-17.1-66.6-17.1s-27.8,2.1-40.9,6.2c-.6.2-1.3.3-2,.3-2.9,0-5.4-1.8-6.2-4.5-1.1-3.7,1.2-12,4.3-13ZM82.5,152.3c16.4-4.5,33.4-6.7,50.4-6.7,30.6,0,61,7.4,87.9,21.4,1.9,1,3.3,2.6,3.9,4.6.6,2,.5,4.2-.6,6.1-2.4,4.7-5.2,7.9-7,7.9s-2.5-.3-3.7-.9c-25-13-52.1-19.6-80.6-19.6s-31.4,2.1-46.2,6.2c-.7.2-1.4.3-2.1.3-3.6,0-6.7-2.4-7.6-5.8-1.2-4.5,1.5-12.3,5.6-13.4ZM81.1,121.8c-.8.2-1.5.3-2.3.3-4.3,0-8-2.9-9.1-7.1-1.3-5.3,2-11.4,6.8-12.6,18.6-4.6,37.5-6.9,56.4-6.9,36.5,0,71.5,8.2,104,24.4,2.3,1.1,3.9,3,4.7,5.4.8,2.4.6,4.9-.5,7.2-1.5,3-4.8,6.3-8.4,6.3s-2.8-.3-4.1-.9c-29.8-14.9-62-22.5-95.7-22.5-17.3,0-34.7,2.1-51.8,6.3Z"/>
</svg>