<svg xmlns="http://www.w3.org/2000/svg" viewBox="0 0 1080 1080">
  <path fill="#ffffff" d="M537.5,989.1c-60.7,0-119.6-11.9-175-35.3-53.6-22.6-101.6-55.1-142.9-96.3-41.4-41.2-73.7-89.3-96.3-142.9-23.4-55.4-35.3-114.4-35.3-175s11.9-119.6,35.3-175c22.6-53.6,55.1-101.6,96.3-142.9s89.3-73.7,142.9-96.3c55.4-23.4,114.4-35.3,175-35.3s119.6,11.9,175,35.3c53.6,22.6,101.6,55.1,142.9,96.3,41.4,41.2,73.7,89.3,96.3,142.9,23.4,55.4,35.3,114.4,35.3,175s-11.9,119.6-35.3,175c-22.6,53.6-55.1,101.6-96.3,142.9-41.2,41.4-89.3,73.7-142.9,96.3-55.4,23.4-114.4,35.3-175,35.3ZM537.5,120.8c-111.9,0-217.1,43.5-296.1,122.6-79.1,79.1-122.6,184.3-122.6,296.1s43.5,217.1,122.6,296.1,184.3,122.6,296.1,122.6,217.1-43.5,296.1-122.6,122.6-184.3,122.6-296.1-43.5-217.1-122.6-296.1-184.3-122.6-296.1-122.6h0Z"/>
  <path fill="#ffffff" d="M685.5,309.9c8.3-1.5,15.8.3,22.3,5.7s9.7,12.2,9.7,20.6v293.1c0,27.1-7.7,48.2-22.9,63.4-15.2,14.9-36.2,22.3-62.8,22.3s-33.4-4.8-45.1-14.3c-11.8-9.9-17.7-22.3-17.7-37.1s7.4-34.3,22.3-46.8,34-18.9,57.7-18.9,18.1,1.5,28,4.6c.3,0,.8-.2,1.1-.6.3,0,.6-.2.6-.6v-188.5c0-1.1-.6-2.1-1.7-2.9-1.1-1.1-2.3-1.5-3.4-1.1l-214.2,41.1c-3.1.8-4.6,2.6-4.6,5.7v230.8c0,27.1-7.7,48.2-22.9,63.4-15.2,14.9-36.2,22.3-62.8,22.3s-33.4-4.9-45.1-14.9c-11.8-9.5-17.7-21.7-17.7-36.6s7.4-34.3,22.3-46.8,34-18.9,57.7-18.9,18.1,1.5,28,4.6c.3,0,.8-.2,1.1-.6.3,0,.6-.2.6-.6v-265.1c0-9.5,2.9-17.9,8.6-25.1,6.1-7.7,13.7-12.2,22.9-13.7l238.2-44.6Z"/>
</svg>