<svg xmlns="http://www.w3.org/2000/svg" viewBox="0 0 800 800">
  <path fill="#ffffff" d="M400,66.7c-184.1,0-333.3,149.6-333.3,334.2,17.5,443.3,649.2,443.2,666.7,0,0-184.6-149.2-334.2-333.3-334.2ZM400,592.3c-105.5,0-191.4-85.9-191.4-191.4,5.2-131,102.8-190.4,191.4-190.4h0c88.5,0,186.1,59.5,191.3,190,0,106-85.9,191.8-191.3,191.8h0Z"/>
  <path fill="#ffffff" d="M400,232.3c-111.9,0-166.3,87.6-169.6,169,0,93.1,76.1,169.1,169.6,169.1s169.6-76.1,169.6-169.6c-3.2-81-57.6-168.6-169.6-168.6ZM337.2,491.1v-180.4l153,86.3-153,94.1h0Z"/>
</svg>